<svg width="15" height="15" viewBox="0 0 15 15" fill="none" xmlns="http://www.w3.org/2000/svg">
<path d="M15 7.5C15 11.6421 11.6421 15 7.5 15C3.35786 15 0 11.6421 0 7.5C0 3.35786 3.35786 0 7.5 0C11.6421 0 15 3.35786 15 7.5Z" fill="#0400A7"/>
<path fill-rule="evenodd" clip-rule="evenodd" d="M11.269 4.98104C11.452 5.1641 11.452 5.4609 11.269 5.64396L6.89396 10.019C6.7109 10.202 6.4141 10.202 6.23104 10.019L3.73104 7.51896C3.54799 7.3359 3.54799 7.0391 3.73104 6.85604C3.9141 6.67299 4.2109 6.67299 4.39396 6.85604L6.5625 9.02459L10.606 4.98104C10.7891 4.79799 11.0859 4.79799 11.269 4.98104Z" fill="white"/>
</svg>
