<svg width="138" height="28" viewBox="0 0 138 28" fill="none" xmlns="http://www.w3.org/2000/svg">
<path d="M12.7585 0.818181H18.2301V19.0739C18.2301 20.7614 17.8509 22.2273 17.0923 23.4716C16.3423 24.7159 15.2983 25.6747 13.9602 26.348C12.6222 27.0213 11.0668 27.358 9.29403 27.358C7.71733 27.358 6.28551 27.081 4.99858 26.527C3.72017 25.9645 2.70597 25.1122 1.95597 23.9702C1.20597 22.8196 0.835227 21.375 0.84375 19.6364H6.35369C6.37074 20.3267 6.51136 20.919 6.77557 21.4134C7.0483 21.8991 7.41903 22.2741 7.88778 22.5384C8.36506 22.794 8.92756 22.9219 9.57528 22.9219C10.2571 22.9219 10.8324 22.777 11.3011 22.4872C11.7784 22.1889 12.1406 21.7543 12.3878 21.1832C12.6349 20.6122 12.7585 19.9091 12.7585 19.0739V0.818181ZM27.3196 27H21.3878L30.4261 0.818181H37.5597L46.5852 27H40.6534L34.0952 6.80114H33.8906L27.3196 27ZM26.9489 16.7088H40.9602V21.0298H26.9489V16.7088ZM60.2195 0.818181H65.6911V19.0739C65.6911 20.7614 65.3118 22.2273 64.5533 23.4716C63.8033 24.7159 62.7592 25.6747 61.4212 26.348C60.0831 27.0213 58.5277 27.358 56.755 27.358C55.1783 27.358 53.7464 27.081 52.4595 26.527C51.1811 25.9645 50.1669 25.1122 49.4169 23.9702C48.6669 22.8196 48.2962 21.375 48.3047 19.6364H53.8146C53.8317 20.3267 53.9723 20.919 54.2365 21.4134C54.5092 21.8991 54.88 22.2741 55.3487 22.5384C55.826 22.794 56.3885 22.9219 57.0362 22.9219C57.718 22.9219 58.2933 22.777 58.7621 22.4872C59.2393 22.1889 59.6016 21.7543 59.8487 21.1832C60.0959 20.6122 60.2195 19.9091 60.2195 19.0739V0.818181ZM75.8033 0.818181V27H70.2678V0.818181H75.8033ZM80.3576 0.818181H87.1843L94.3945 18.4091H94.7014L101.912 0.818181H108.738V27H103.369V9.95881H103.152L96.3761 26.8722H92.7198L85.9442 9.89489H85.7269V27H80.3576V0.818181ZM117.812 27H111.88L120.918 0.818181H128.052L137.077 27H131.146L124.587 6.80114H124.383L117.812 27ZM117.441 16.7088H131.452V21.0298H117.441V16.7088Z" fill="#0400A7"/>
</svg>
